<mxfile host="www.draw.io" modified="2020-01-20T09:22:14.888Z" agent="Mozilla/5.0 (Windows NT 10.0; Win64; x64) AppleWebKit/537.36 (KHTML, like Gecko) Chrome/79.0.3945.88 Safari/537.36" etag="OEbxOpbCpcOwRyGNfXes" version="12.5.5" type="github">
  <diagram id="395irE5sJE42bgMamf1Q" name="Page-1">
    <mxGraphModel dx="979" dy="519" grid="1" gridSize="10" guides="1" tooltips="1" connect="1" arrows="1" fold="1" page="1" pageScale="1" pageWidth="827" pageHeight="1169" math="0" shadow="0">
      <root>
        <mxCell id="0"/>
        <mxCell id="1" parent="0"/>
        <mxCell id="e9EGtRpQC0bAStjFHuXQ-1" value="" style="ellipse;whiteSpace=wrap;html=1;aspect=fixed;fillColor=#66B2FF;" parent="1" vertex="1">
          <mxGeometry x="200" y="80" width="40" height="40" as="geometry"/>
        </mxCell>
        <mxCell id="e9EGtRpQC0bAStjFHuXQ-2" value="" style="ellipse;whiteSpace=wrap;html=1;aspect=fixed;fillColor=#66B2FF;" parent="1" vertex="1">
          <mxGeometry x="120" y="160" width="40" height="40" as="geometry"/>
        </mxCell>
        <mxCell id="e9EGtRpQC0bAStjFHuXQ-3" value="" style="ellipse;whiteSpace=wrap;html=1;aspect=fixed;fillColor=#66B2FF;" parent="1" vertex="1">
          <mxGeometry x="280" y="160" width="40" height="40" as="geometry"/>
        </mxCell>
        <mxCell id="e9EGtRpQC0bAStjFHuXQ-4" value="" style="ellipse;whiteSpace=wrap;html=1;aspect=fixed;fillColor=#66B2FF;" parent="1" vertex="1">
          <mxGeometry x="200" y="240" width="40" height="40" as="geometry"/>
        </mxCell>
        <mxCell id="e9EGtRpQC0bAStjFHuXQ-5" value="" style="endArrow=none;html=1;exitX=0;exitY=1;exitDx=0;exitDy=0;entryX=1;entryY=0;entryDx=0;entryDy=0;" parent="1" source="e9EGtRpQC0bAStjFHuXQ-1" target="e9EGtRpQC0bAStjFHuXQ-2" edge="1">
          <mxGeometry width="50" height="50" relative="1" as="geometry">
            <mxPoint x="60" y="480" as="sourcePoint"/>
            <mxPoint x="110" y="430" as="targetPoint"/>
          </mxGeometry>
        </mxCell>
        <mxCell id="e9EGtRpQC0bAStjFHuXQ-6" value="" style="endArrow=none;html=1;exitX=1;exitY=1;exitDx=0;exitDy=0;entryX=0;entryY=0;entryDx=0;entryDy=0;" parent="1" source="e9EGtRpQC0bAStjFHuXQ-2" target="e9EGtRpQC0bAStjFHuXQ-4" edge="1">
          <mxGeometry width="50" height="50" relative="1" as="geometry">
            <mxPoint x="170" y="350" as="sourcePoint"/>
            <mxPoint x="190" y="480" as="targetPoint"/>
          </mxGeometry>
        </mxCell>
        <mxCell id="e9EGtRpQC0bAStjFHuXQ-7" value="" style="endArrow=none;html=1;exitX=0;exitY=1;exitDx=0;exitDy=0;entryX=1;entryY=0;entryDx=0;entryDy=0;" parent="1" source="e9EGtRpQC0bAStjFHuXQ-3" target="e9EGtRpQC0bAStjFHuXQ-4" edge="1">
          <mxGeometry width="50" height="50" relative="1" as="geometry">
            <mxPoint x="180" y="530" as="sourcePoint"/>
            <mxPoint x="230" y="480" as="targetPoint"/>
          </mxGeometry>
        </mxCell>
        <mxCell id="e9EGtRpQC0bAStjFHuXQ-8" value="" style="endArrow=none;html=1;exitX=1;exitY=1;exitDx=0;exitDy=0;entryX=0;entryY=0;entryDx=0;entryDy=0;" parent="1" source="e9EGtRpQC0bAStjFHuXQ-1" target="e9EGtRpQC0bAStjFHuXQ-3" edge="1">
          <mxGeometry width="50" height="50" relative="1" as="geometry">
            <mxPoint x="220" y="470" as="sourcePoint"/>
            <mxPoint x="280" y="160" as="targetPoint"/>
          </mxGeometry>
        </mxCell>
        <mxCell id="e9EGtRpQC0bAStjFHuXQ-16" value="2" style="text;html=1;strokeColor=none;fillColor=none;align=center;verticalAlign=middle;whiteSpace=wrap;rounded=0;fontColor=#FFFFFF;" parent="1" vertex="1">
          <mxGeometry x="120" y="170" width="40" height="20" as="geometry"/>
        </mxCell>
        <mxCell id="e9EGtRpQC0bAStjFHuXQ-17" value="1" style="text;html=1;strokeColor=none;fillColor=none;align=center;verticalAlign=middle;whiteSpace=wrap;rounded=0;fontColor=#FFFFFF;" parent="1" vertex="1">
          <mxGeometry x="200" y="90" width="40" height="20" as="geometry"/>
        </mxCell>
        <mxCell id="e9EGtRpQC0bAStjFHuXQ-18" value="3" style="text;html=1;strokeColor=none;fillColor=none;align=center;verticalAlign=middle;whiteSpace=wrap;rounded=0;fontColor=#FFFFFF;" parent="1" vertex="1">
          <mxGeometry x="200" y="250" width="40" height="20" as="geometry"/>
        </mxCell>
        <mxCell id="e9EGtRpQC0bAStjFHuXQ-19" value="4" style="text;html=1;strokeColor=none;fillColor=none;align=center;verticalAlign=middle;whiteSpace=wrap;rounded=0;fontColor=#FFFFFF;" parent="1" vertex="1">
          <mxGeometry x="280" y="170" width="40" height="20" as="geometry"/>
        </mxCell>
        <mxCell id="VuLVFiqGMwM_FB5YuDl--1" value="" style="ellipse;whiteSpace=wrap;html=1;aspect=fixed;fillColor=#66B2FF;" parent="1" vertex="1">
          <mxGeometry x="481" y="80" width="40" height="40" as="geometry"/>
        </mxCell>
        <mxCell id="VuLVFiqGMwM_FB5YuDl--2" value="" style="ellipse;whiteSpace=wrap;html=1;aspect=fixed;fillColor=#66B2FF;" parent="1" vertex="1">
          <mxGeometry x="401" y="160" width="40" height="40" as="geometry"/>
        </mxCell>
        <mxCell id="VuLVFiqGMwM_FB5YuDl--3" value="" style="ellipse;whiteSpace=wrap;html=1;aspect=fixed;fillColor=#66B2FF;" parent="1" vertex="1">
          <mxGeometry x="561" y="160" width="40" height="40" as="geometry"/>
        </mxCell>
        <mxCell id="VuLVFiqGMwM_FB5YuDl--4" value="" style="ellipse;whiteSpace=wrap;html=1;aspect=fixed;fillColor=#66B2FF;" parent="1" vertex="1">
          <mxGeometry x="481" y="240" width="40" height="40" as="geometry"/>
        </mxCell>
        <mxCell id="VuLVFiqGMwM_FB5YuDl--9" value="2" style="text;html=1;strokeColor=none;fillColor=none;align=center;verticalAlign=middle;whiteSpace=wrap;rounded=0;fontColor=#FFFFFF;" parent="1" vertex="1">
          <mxGeometry x="401" y="170" width="40" height="20" as="geometry"/>
        </mxCell>
        <mxCell id="VuLVFiqGMwM_FB5YuDl--10" value="1" style="text;html=1;strokeColor=none;fillColor=none;align=center;verticalAlign=middle;whiteSpace=wrap;rounded=0;fontColor=#FFFFFF;" parent="1" vertex="1">
          <mxGeometry x="481" y="90" width="40" height="20" as="geometry"/>
        </mxCell>
        <mxCell id="VuLVFiqGMwM_FB5YuDl--11" value="3" style="text;html=1;strokeColor=none;fillColor=none;align=center;verticalAlign=middle;whiteSpace=wrap;rounded=0;fontColor=#FFFFFF;" parent="1" vertex="1">
          <mxGeometry x="481" y="250" width="40" height="20" as="geometry"/>
        </mxCell>
        <mxCell id="VuLVFiqGMwM_FB5YuDl--12" value="4" style="text;html=1;strokeColor=none;fillColor=none;align=center;verticalAlign=middle;whiteSpace=wrap;rounded=0;fontColor=#FFFFFF;" parent="1" vertex="1">
          <mxGeometry x="561" y="170" width="40" height="20" as="geometry"/>
        </mxCell>
        <mxCell id="VuLVFiqGMwM_FB5YuDl--13" value="" style="endArrow=classic;html=1;fontColor=#FFFFFF;exitX=1;exitY=0;exitDx=0;exitDy=0;entryX=0;entryY=1;entryDx=0;entryDy=0;" parent="1" source="VuLVFiqGMwM_FB5YuDl--2" target="VuLVFiqGMwM_FB5YuDl--1" edge="1">
          <mxGeometry width="50" height="50" relative="1" as="geometry">
            <mxPoint x="291" y="390" as="sourcePoint"/>
            <mxPoint x="341" y="340" as="targetPoint"/>
          </mxGeometry>
        </mxCell>
        <mxCell id="VuLVFiqGMwM_FB5YuDl--14" value="" style="endArrow=classic;html=1;fontColor=#FFFFFF;entryX=0;entryY=0;entryDx=0;entryDy=0;exitX=1;exitY=1;exitDx=0;exitDy=0;" parent="1" source="VuLVFiqGMwM_FB5YuDl--1" target="VuLVFiqGMwM_FB5YuDl--3" edge="1">
          <mxGeometry width="50" height="50" relative="1" as="geometry">
            <mxPoint x="521" y="110" as="sourcePoint"/>
            <mxPoint x="571" y="60" as="targetPoint"/>
          </mxGeometry>
        </mxCell>
        <mxCell id="VuLVFiqGMwM_FB5YuDl--15" value="" style="endArrow=classic;html=1;fontColor=#FFFFFF;entryX=0;entryY=1;entryDx=0;entryDy=0;exitX=1;exitY=0;exitDx=0;exitDy=0;" parent="1" source="VuLVFiqGMwM_FB5YuDl--4" target="VuLVFiqGMwM_FB5YuDl--3" edge="1">
          <mxGeometry width="50" height="50" relative="1" as="geometry">
            <mxPoint x="521" y="240" as="sourcePoint"/>
            <mxPoint x="411" y="410" as="targetPoint"/>
          </mxGeometry>
        </mxCell>
        <mxCell id="VuLVFiqGMwM_FB5YuDl--17" value="" style="endArrow=classic;html=1;fontColor=#FFFFFF;exitX=0;exitY=0;exitDx=0;exitDy=0;entryX=1;entryY=1;entryDx=0;entryDy=0;" parent="1" source="VuLVFiqGMwM_FB5YuDl--4" target="VuLVFiqGMwM_FB5YuDl--2" edge="1">
          <mxGeometry width="50" height="50" relative="1" as="geometry">
            <mxPoint x="311" y="390" as="sourcePoint"/>
            <mxPoint x="361" y="340" as="targetPoint"/>
          </mxGeometry>
        </mxCell>
        <mxCell id="VuLVFiqGMwM_FB5YuDl--18" value="" style="ellipse;whiteSpace=wrap;html=1;aspect=fixed;fillColor=#66B2FF;" parent="1" vertex="1">
          <mxGeometry x="200" y="368" width="40" height="40" as="geometry"/>
        </mxCell>
        <mxCell id="VuLVFiqGMwM_FB5YuDl--19" value="" style="ellipse;whiteSpace=wrap;html=1;aspect=fixed;fillColor=#66B2FF;" parent="1" vertex="1">
          <mxGeometry x="120" y="448" width="40" height="40" as="geometry"/>
        </mxCell>
        <mxCell id="VuLVFiqGMwM_FB5YuDl--20" value="" style="ellipse;whiteSpace=wrap;html=1;aspect=fixed;fillColor=#66B2FF;" parent="1" vertex="1">
          <mxGeometry x="280" y="448" width="40" height="40" as="geometry"/>
        </mxCell>
        <mxCell id="VuLVFiqGMwM_FB5YuDl--21" value="" style="ellipse;whiteSpace=wrap;html=1;aspect=fixed;fillColor=#66B2FF;" parent="1" vertex="1">
          <mxGeometry x="200" y="528" width="40" height="40" as="geometry"/>
        </mxCell>
        <mxCell id="VuLVFiqGMwM_FB5YuDl--22" value="" style="endArrow=none;html=1;exitX=0;exitY=1;exitDx=0;exitDy=0;entryX=1;entryY=0;entryDx=0;entryDy=0;" parent="1" source="VuLVFiqGMwM_FB5YuDl--18" target="VuLVFiqGMwM_FB5YuDl--19" edge="1">
          <mxGeometry width="50" height="50" relative="1" as="geometry">
            <mxPoint x="60" y="768" as="sourcePoint"/>
            <mxPoint x="110" y="718" as="targetPoint"/>
          </mxGeometry>
        </mxCell>
        <mxCell id="VuLVFiqGMwM_FB5YuDl--23" value="" style="endArrow=none;html=1;exitX=1;exitY=1;exitDx=0;exitDy=0;entryX=0;entryY=0;entryDx=0;entryDy=0;" parent="1" source="VuLVFiqGMwM_FB5YuDl--19" target="VuLVFiqGMwM_FB5YuDl--21" edge="1">
          <mxGeometry width="50" height="50" relative="1" as="geometry">
            <mxPoint x="170" y="638" as="sourcePoint"/>
            <mxPoint x="190" y="768" as="targetPoint"/>
          </mxGeometry>
        </mxCell>
        <mxCell id="VuLVFiqGMwM_FB5YuDl--24" value="" style="endArrow=none;html=1;exitX=0;exitY=1;exitDx=0;exitDy=0;entryX=1;entryY=0;entryDx=0;entryDy=0;" parent="1" source="VuLVFiqGMwM_FB5YuDl--20" target="VuLVFiqGMwM_FB5YuDl--21" edge="1">
          <mxGeometry width="50" height="50" relative="1" as="geometry">
            <mxPoint x="180" y="818" as="sourcePoint"/>
            <mxPoint x="230" y="768" as="targetPoint"/>
          </mxGeometry>
        </mxCell>
        <mxCell id="VuLVFiqGMwM_FB5YuDl--25" value="" style="endArrow=none;html=1;exitX=1;exitY=1;exitDx=0;exitDy=0;entryX=0;entryY=0;entryDx=0;entryDy=0;" parent="1" source="VuLVFiqGMwM_FB5YuDl--18" target="VuLVFiqGMwM_FB5YuDl--20" edge="1">
          <mxGeometry width="50" height="50" relative="1" as="geometry">
            <mxPoint x="220" y="758" as="sourcePoint"/>
            <mxPoint x="280" y="448" as="targetPoint"/>
          </mxGeometry>
        </mxCell>
        <mxCell id="VuLVFiqGMwM_FB5YuDl--26" value="2" style="text;html=1;strokeColor=none;fillColor=none;align=center;verticalAlign=middle;whiteSpace=wrap;rounded=0;fontColor=#FFFFFF;" parent="1" vertex="1">
          <mxGeometry x="120" y="458" width="40" height="20" as="geometry"/>
        </mxCell>
        <mxCell id="VuLVFiqGMwM_FB5YuDl--27" value="1" style="text;html=1;strokeColor=none;fillColor=none;align=center;verticalAlign=middle;whiteSpace=wrap;rounded=0;fontColor=#FFFFFF;" parent="1" vertex="1">
          <mxGeometry x="200" y="378" width="40" height="20" as="geometry"/>
        </mxCell>
        <mxCell id="VuLVFiqGMwM_FB5YuDl--28" value="3" style="text;html=1;strokeColor=none;fillColor=none;align=center;verticalAlign=middle;whiteSpace=wrap;rounded=0;fontColor=#FFFFFF;" parent="1" vertex="1">
          <mxGeometry x="200" y="538" width="40" height="20" as="geometry"/>
        </mxCell>
        <mxCell id="VuLVFiqGMwM_FB5YuDl--29" value="4" style="text;html=1;strokeColor=none;fillColor=none;align=center;verticalAlign=middle;whiteSpace=wrap;rounded=0;fontColor=#FFFFFF;" parent="1" vertex="1">
          <mxGeometry x="280" y="458" width="40" height="20" as="geometry"/>
        </mxCell>
        <mxCell id="VuLVFiqGMwM_FB5YuDl--30" value="1" style="text;html=1;strokeColor=none;fillColor=none;align=center;verticalAlign=middle;whiteSpace=wrap;rounded=0;fontColor=#000000;" parent="1" vertex="1">
          <mxGeometry x="150" y="408" width="40" height="20" as="geometry"/>
        </mxCell>
        <mxCell id="VuLVFiqGMwM_FB5YuDl--31" value="2" style="text;html=1;strokeColor=none;fillColor=none;align=center;verticalAlign=middle;whiteSpace=wrap;rounded=0;fontColor=#000000;" parent="1" vertex="1">
          <mxGeometry x="250" y="408" width="40" height="20" as="geometry"/>
        </mxCell>
        <mxCell id="VuLVFiqGMwM_FB5YuDl--32" value="2" style="text;html=1;strokeColor=none;fillColor=none;align=center;verticalAlign=middle;whiteSpace=wrap;rounded=0;fontColor=#000000;" parent="1" vertex="1">
          <mxGeometry x="150" y="508" width="40" height="20" as="geometry"/>
        </mxCell>
        <mxCell id="VuLVFiqGMwM_FB5YuDl--33" value="5" style="text;html=1;strokeColor=none;fillColor=none;align=center;verticalAlign=middle;whiteSpace=wrap;rounded=0;fontColor=#000000;" parent="1" vertex="1">
          <mxGeometry x="250" y="508" width="40" height="20" as="geometry"/>
        </mxCell>
        <mxCell id="VuLVFiqGMwM_FB5YuDl--34" value="（c）" style="text;html=1;strokeColor=none;fillColor=none;align=center;verticalAlign=middle;whiteSpace=wrap;rounded=0;fontColor=#000000;" parent="1" vertex="1">
          <mxGeometry x="200" y="599" width="40" height="20" as="geometry"/>
        </mxCell>
        <mxCell id="VuLVFiqGMwM_FB5YuDl--35" value="（a）" style="text;html=1;strokeColor=none;fillColor=none;align=center;verticalAlign=middle;whiteSpace=wrap;rounded=0;fontColor=#000000;" parent="1" vertex="1">
          <mxGeometry x="200" y="310" width="40" height="20" as="geometry"/>
        </mxCell>
        <mxCell id="VuLVFiqGMwM_FB5YuDl--36" value="（b）" style="text;html=1;strokeColor=none;fillColor=none;align=center;verticalAlign=middle;whiteSpace=wrap;rounded=0;fontColor=#000000;" parent="1" vertex="1">
          <mxGeometry x="481" y="310" width="40" height="20" as="geometry"/>
        </mxCell>
        <mxCell id="2v2nGLYATZhjdXSjCoz2-1" value="" style="rounded=1;whiteSpace=wrap;html=1;fillColor=#66B2FF;" vertex="1" parent="1">
          <mxGeometry x="140" y="753" width="50" height="190" as="geometry"/>
        </mxCell>
        <mxCell id="2v2nGLYATZhjdXSjCoz2-2" value="" style="endArrow=none;html=1;exitX=1;exitY=0.5;exitDx=0;exitDy=0;entryX=0;entryY=0.5;entryDx=0;entryDy=0;" edge="1" parent="1" source="2v2nGLYATZhjdXSjCoz2-1" target="2v2nGLYATZhjdXSjCoz2-1">
          <mxGeometry width="50" height="50" relative="1" as="geometry">
            <mxPoint x="50" y="970" as="sourcePoint"/>
            <mxPoint x="140" y="915" as="targetPoint"/>
          </mxGeometry>
        </mxCell>
        <mxCell id="2v2nGLYATZhjdXSjCoz2-3" value="" style="endArrow=none;html=1;exitX=1;exitY=0.25;exitDx=0;exitDy=0;entryX=0;entryY=0.25;entryDx=0;entryDy=0;" edge="1" parent="1" source="2v2nGLYATZhjdXSjCoz2-1" target="2v2nGLYATZhjdXSjCoz2-1">
          <mxGeometry width="50" height="50" relative="1" as="geometry">
            <mxPoint x="30" y="960" as="sourcePoint"/>
            <mxPoint x="80" y="910" as="targetPoint"/>
          </mxGeometry>
        </mxCell>
        <mxCell id="2v2nGLYATZhjdXSjCoz2-4" value="" style="endArrow=none;html=1;exitX=1;exitY=0.75;exitDx=0;exitDy=0;entryX=0;entryY=0.75;entryDx=0;entryDy=0;" edge="1" parent="1" source="2v2nGLYATZhjdXSjCoz2-1" target="2v2nGLYATZhjdXSjCoz2-1">
          <mxGeometry width="50" height="50" relative="1" as="geometry">
            <mxPoint x="30" y="1000" as="sourcePoint"/>
            <mxPoint x="80" y="950" as="targetPoint"/>
          </mxGeometry>
        </mxCell>
        <mxCell id="2v2nGLYATZhjdXSjCoz2-5" value="1" style="text;html=1;strokeColor=none;fillColor=none;align=center;verticalAlign=middle;whiteSpace=wrap;rounded=0;fontColor=#FFFFFF;fontSize=16;" vertex="1" parent="1">
          <mxGeometry x="145" y="764" width="40" height="20" as="geometry"/>
        </mxCell>
        <mxCell id="2v2nGLYATZhjdXSjCoz2-6" value="2" style="text;html=1;strokeColor=none;fillColor=none;align=center;verticalAlign=middle;whiteSpace=wrap;rounded=0;fontColor=#FFFFFF;fontSize=16;" vertex="1" parent="1">
          <mxGeometry x="145" y="810" width="40" height="20" as="geometry"/>
        </mxCell>
        <mxCell id="2v2nGLYATZhjdXSjCoz2-7" value="3" style="text;html=1;strokeColor=none;fillColor=none;align=center;verticalAlign=middle;whiteSpace=wrap;rounded=0;fontColor=#FFFFFF;fontSize=16;" vertex="1" parent="1">
          <mxGeometry x="145" y="860" width="40" height="20" as="geometry"/>
        </mxCell>
        <mxCell id="2v2nGLYATZhjdXSjCoz2-8" value="4" style="text;html=1;strokeColor=none;fillColor=none;align=center;verticalAlign=middle;whiteSpace=wrap;rounded=0;fontColor=#FFFFFF;fontSize=16;" vertex="1" parent="1">
          <mxGeometry x="145" y="910" width="40" height="20" as="geometry"/>
        </mxCell>
        <mxCell id="2v2nGLYATZhjdXSjCoz2-9" value="" style="rounded=1;whiteSpace=wrap;html=1;fillColor=#66B2FF;fontSize=16;fontColor=#FFFFFF;" vertex="1" parent="1">
          <mxGeometry x="230" y="754" width="60" height="46" as="geometry"/>
        </mxCell>
        <mxCell id="2v2nGLYATZhjdXSjCoz2-10" value="" style="endArrow=none;html=1;fontSize=16;fontColor=#FFFFFF;exitX=0.5;exitY=0;exitDx=0;exitDy=0;entryX=0.5;entryY=1;entryDx=0;entryDy=0;" edge="1" parent="1" source="2v2nGLYATZhjdXSjCoz2-9" target="2v2nGLYATZhjdXSjCoz2-9">
          <mxGeometry width="50" height="50" relative="1" as="geometry">
            <mxPoint x="286" y="1080" as="sourcePoint"/>
            <mxPoint x="336" y="1030" as="targetPoint"/>
          </mxGeometry>
        </mxCell>
        <mxCell id="2v2nGLYATZhjdXSjCoz2-12" value="" style="rounded=1;whiteSpace=wrap;html=1;fillColor=#66B2FF;fontSize=16;fontColor=#FFFFFF;" vertex="1" parent="1">
          <mxGeometry x="326" y="754" width="60" height="46" as="geometry"/>
        </mxCell>
        <mxCell id="2v2nGLYATZhjdXSjCoz2-13" value="" style="endArrow=none;html=1;fontSize=16;fontColor=#FFFFFF;exitX=0.5;exitY=0;exitDx=0;exitDy=0;entryX=0.5;entryY=1;entryDx=0;entryDy=0;" edge="1" parent="1" source="2v2nGLYATZhjdXSjCoz2-12" target="2v2nGLYATZhjdXSjCoz2-12">
          <mxGeometry width="50" height="50" relative="1" as="geometry">
            <mxPoint x="386" y="1080" as="sourcePoint"/>
            <mxPoint x="436" y="1030" as="targetPoint"/>
          </mxGeometry>
        </mxCell>
        <mxCell id="2v2nGLYATZhjdXSjCoz2-14" value="2" style="text;html=1;strokeColor=none;fillColor=none;align=center;verticalAlign=middle;whiteSpace=wrap;rounded=0;fontColor=#FFFFFF;fontSize=16;" vertex="1" parent="1">
          <mxGeometry x="239" y="771" width="14" height="14" as="geometry"/>
        </mxCell>
        <mxCell id="2v2nGLYATZhjdXSjCoz2-15" value="4" style="text;html=1;strokeColor=none;fillColor=none;align=center;verticalAlign=middle;whiteSpace=wrap;rounded=0;fontColor=#FFFFFF;fontSize=16;" vertex="1" parent="1">
          <mxGeometry x="334" y="773" width="16" height="10" as="geometry"/>
        </mxCell>
        <mxCell id="2v2nGLYATZhjdXSjCoz2-17" value="" style="endArrow=none;html=1;fontSize=16;fontColor=#FFFFFF;exitX=1.013;exitY=0.125;exitDx=0;exitDy=0;exitPerimeter=0;entryX=0;entryY=0.5;entryDx=0;entryDy=0;" edge="1" parent="1" source="2v2nGLYATZhjdXSjCoz2-1" target="2v2nGLYATZhjdXSjCoz2-9">
          <mxGeometry width="50" height="50" relative="1" as="geometry">
            <mxPoint x="220" y="890" as="sourcePoint"/>
            <mxPoint x="210" y="777" as="targetPoint"/>
          </mxGeometry>
        </mxCell>
        <mxCell id="2v2nGLYATZhjdXSjCoz2-18" value="" style="endArrow=none;html=1;fontSize=16;fontColor=#FFFFFF;exitX=1;exitY=0.5;exitDx=0;exitDy=0;entryX=0;entryY=0.5;entryDx=0;entryDy=0;" edge="1" parent="1" source="2v2nGLYATZhjdXSjCoz2-9" target="2v2nGLYATZhjdXSjCoz2-12">
          <mxGeometry width="50" height="50" relative="1" as="geometry">
            <mxPoint x="280" y="890" as="sourcePoint"/>
            <mxPoint x="310" y="775" as="targetPoint"/>
          </mxGeometry>
        </mxCell>
      </root>
    </mxGraphModel>
  </diagram>
</mxfile>
